#!OML:ASF H:\Punching\Project 1\Capture day 1\Session 1\female.ASF
:FULLY-SPECIFIED
:DEGREES
1388
root 0.122024 14.4665 1.24007 16.0688 7.92593 0.552584
lowerback 4.64869 8.7877 3.90257
upperback -3.10291 11.9465 -2.08655
thorax -4.56951 5.78232 -5.19373
lowerneck -9.63194 -4.17562 8.02762
upperneck 28.0686 -9.41864 7.60475
head 10.7581 -2.43147 0.28911
rclavicle 4.09496e-014 8.74653e-015
rhumerus 31.1407 6.75384 -82.9069
rradius 79.9895
rwrist -39.5149
rhand -24.6743 -27.1553
rfingers 7.12502
rthumb 1.82617 -57.1273
lclavicle 4.09496e-014 8.74653e-015
lhumerus 28.0286 -33.5033 73.669
lradius 132.336
lwrist 17.9146
lhand -18.3629 9.6413
lfingers 7.12502
lthumb 7.92004 39.4729
rfemur 6.53457 -12.0718 9.37256
rtibia 18.3261
rfoot -23.944 -33.2397
rtoes -13.0449
lfemur -55.7419 -4.16002 -10.8693
ltibia 45.3132
lfoot -5.35837 0.711679
ltoes -2.67236
1389
root 0.126526 14.5028 1.24021 15.9546 5.8906 0.251617
lowerback 4.4414 8.54482 3.43977
upperback -3.05 11.5724 -2.27543
thorax -4.48696 5.61338 -5.08821
lowerneck -9.71184 -3.33467 8.96092
upperneck 28.4472 -8.41896 7.32054
head 10.8765 -1.89466 0.148276
rclavicle 6.05299e-014 2.78299e-014
rhumerus 28.8709 8.98126 -83.6618
rradius 85.2076
rwrist -40.1849
rhand -24.3393 -27.1237
rfingers 7.12502
rthumb 2.14966 -57.0926
lclavicle 6.05299e-014 2.78299e-014
lhumerus 28.0555 -33.04 73.6074
lradius 132.397
lwrist 18.4171
lhand -18.541 9.71854
lfingers 7.12502
lthumb 7.74818 39.5566
rfemur 6.10319 -11.4877 9.18636
rtibia 17.76
rfoot -23.5557 -32.9657
rtoes -13.11
lfemur -54.8866 -3.25552 -10.3996
ltibia 45.1614
lfoot -5.75387 1.5945
ltoes -2.62887
1390
root 0.129928 14.5377 1.23867 15.8211 3.80782 -0.0663874
lowerback 4.34194 8.29208 2.97464
upperback -3.04355 11.1908 -2.46642
thorax -4.51159 5.43513 -5.00679
lowerneck -9.73039 -2.49869 9.92535
upperneck 28.826 -7.42005 7.01565
head 10.9976 -1.35913 -0.00356986
rclavicle 3.28989e-014 1.59028e-015
rhumerus 26.42 11.0878 -84.4412
rradius 90.3521
rwrist -40.5482
rhand -23.8406 -26.9375
rfingers 7.12502
rthumb 2.63132 -56.901
lclavicle 3.28989e-014 1.59028e-015
lhumerus 28.0751 -32.5955 73.5416
lradius 132.524
lwrist 18.8893
lhand -18.6572 9.82284
lfingers 7.12502
lthumb 7.63605 39.665
rfemur 5.71421 -10.8636 9.02036
rtibia 17.1284
rfoot -23.146 -32.6494
rtoes -13.1325
lfemur -53.9789 -2.26703 -9.95177
ltibia 45.0289
lfoot -6.15519 2.44305
ltoes -2.59984
1391
root 0.132795 14.5708 1.23646 15.6633 1.70563 -0.387426
lowerback 4.30547 8.01719 2.49103
upperback -3.05443 10.781 -2.64109
thorax -4.59591 5.24091 -4.90871
lowerneck -9.66712 -1.66341 10.9008
upperneck 29.1824 -6.40301 6.68675
head 11.1098 -0.821156 -0.162185
rclavicle -1.50381e-013 4.37326e-014
rhumerus 23.8483 13.095 -85.2022
rradius 95.3684
rwrist -40.7157
rhand -23.1996 -26.6344
rfingers 7.12502
rthumb 3.25031 -56.5894
lclavicle -1.50381e-013 4.37326e-014
lhumerus 28.0938 -32.1634 73.4547
lradius 132.704
lwrist 19.2784
lhand -18.7272 9.86259
lfingers 7.12502
lthumb 7.56849 39.7072
rfemur 5.39353 -10.1921 8.85201
rtibia 16.4405
rfoot -22.6919 -32.2849
rtoes -13.1452
lfemur -53.0095 -1.22453 -9.53726
ltibia 44.907
lfoot -6.56351 3.26248
ltoes -2.59041
1392
root 0.134779 14.6027 1.23348 15.4726 -0.394724 -0.698155
lowerback 4.36388 7.72253 1.98455
upperback -3.08981 10.3444 -2.8048
thorax -4.76402 5.0311 -4.80141
lowerneck -9.53721 -0.840912 11.8831
upperneck 29.5336 -5.38526 6.3318
head 11.2231 -0.287211 -0.330097
rclavicle 1.08909e-013 -1.08338e-014
rhumerus 21.1756 14.9624 -85.933
rradius 100.201
rwrist -40.7854
rhand -22.4202 -26.2599
rfingers 7.12502
rthumb 4.00301 -56.202
lclavicle 1.08909e-013 -1.08338e-014
lhumerus 28.1192 -31.7725 73.3246
lradius 132.92
lwrist 19.5792
lhand -18.77 9.83617
lfingers 7.12502
lthumb 7.52714 39.6822
rfemur 5.15432 -9.44581 8.66578
rtibia 15.7109
rfoot -22.1649 -31.8549
rtoes -13.2342
lfemur -51.9707 -0.16223 -9.15664
ltibia 44.7827
lfoot -6.97322 4.06524
ltoes -2.56034
1393
root 0.135885 14.6331 1.22942 15.2442 -2.46652 -0.988339
lowerback 4.46688 7.39044 1.43415
upperback -3.10243 9.85445 -2.9307
thorax -4.94737 4.79682 -4.62971
lowerneck -9.37321 -0.0148319 12.8346
upperneck 29.8733 -4.33606 5.93856
head 11.3422 0.251052 -0.502634
rclavicle -8.93723e-014 3.52843e-015
rhumerus 18.5262 16.7297 -86.5705
rradius 104.792
rwrist -40.8258
rhand -21.5419 -25.8459
rfingers 7.12502
rthumb 4.85108 -55.7704
lclavicle -8.93723e-014 3.52843e-015
lhumerus 28.1906 -31.3361 73.1277
lradius 133.162
lwrist 19.7963
lhand -18.7815 9.75845
lfingers 7.12502
lthumb 7.51604 39.6049
rfemur 5.00817 -8.61167 8.44798
rtibia 14.9425
rfoot -21.5427 -31.3443
rtoes -13.4612
lfemur -50.868 0.879778 -8.80616
ltibia 44.6486
lfoot -7.37193 4.86046
ltoes -2.50736
1394
root 0.136412 14.6615 1.22434 14.9762 -4.48009 -1.24775
lowerback 4.65018 7.03216 0.86305
upperback -3.11789 9.32578 -3.04389
thorax -5.18123 4.54341 -4.4381
lowerneck -9.16332 0.78893 13.7701
upperneck 30.2008 -3.29508 5.52281
head 11.4642 0.779345 -0.680841
rclavicle -4.05024e-014 -1.09332e-014
rhumerus 15.8978 18.3158 -87.1331
rradius 109.102
rwrist -40.8687
rhand -20.5946 -25.4416
rfingers 7.12502
rthumb 5.76577 -55.3431
lclavicle -4.05024e-014 -1.09332e-014
lhumerus 28.2819 -30.9086 72.8572
lradius 133.436
lwrist 19.9595
lhand -18.7706 9.70351
lfingers 7.12502
lthumb 7.52655 39.5496
rfemur 4.95252 -7.70315 8.18429
rtibia 14.1596
rfoot -20.841 -30.7259
rtoes -13.8721
lfemur -49.7168 1.85696 -8.4836
ltibia 44.5041
lfoot -7.74791 5.66192
ltoes -2.41108
